<?xml version="1.0" encoding="utf-8" standalone="no"?>
<!DOCTYPE svg PUBLIC "-//W3C//DTD SVG 1.1//EN"
  "http://www.w3.org/Graphics/SVG/1.1/DTD/svg11.dtd">
<svg height="201.126094pt" version="1.1" viewBox="0 0 341.281406 201.126094" width="341.281406pt" xmlns="http://www.w3.org/2000/svg" xmlns:xlink="http://www.w3.org/1999/xlink">
 <metadata>
  <rdf:RDF xmlns:cc="http://creativecommons.org/ns#" xmlns:dc="http://purl.org/dc/elements/1.1/" xmlns:rdf="http://www.w3.org/1999/02/22-rdf-syntax-ns#">
   <cc:Work>
    <dc:type rdf:resource="http://purl.org/dc/dcmitype/StillImage"/>
    <dc:date>2023-04-22T14:54:46.385513</dc:date>
    <dc:format>image/svg+xml</dc:format>
    <dc:creator>
     <cc:Agent>
      <dc:title>Matplotlib v3.4.2, https://matplotlib.org/</dc:title>
     </cc:Agent>
    </dc:creator>
   </cc:Work>
  </rdf:RDF>
 </metadata>
 <defs>
  <style type="text/css">*{stroke-linecap:butt;stroke-linejoin:round;}</style>
 </defs>
 <g id="figure_1">
  <g id="patch_1">
   <path d="M 0 201.126094 
L 341.281406 201.126094 
L 341.281406 0 
L 0 0 
z
" style="fill:#ffffff;"/>
  </g>
  <g id="axes_1">
   <g id="patch_2">
    <path d="M 55.081406 145.8 
L 334.081406 145.8 
L 334.081406 7.2 
L 55.081406 7.2 
z
" style="fill:#eaeaf2;"/>
   </g>
   <g id="matplotlib.axis_1">
    <g id="xtick_1">
     <g id="text_1">
      <!-- fake -->
      <g style="fill:#262626;" transform="translate(109.419375 167.30375)scale(0.165 -0.165)">
       <defs>
        <path d="M 1153 2456 
L 1153 1241 
Q 1153 366 1204 262 
Q 1256 159 1519 159 
L 1794 159 
L 1794 -22 
Q 1281 3 1059 3 
L 72 -22 
L 72 159 
L 281 159 
Q 525 159 569 256 
Q 628 388 628 1241 
L 628 2456 
L 178 2425 
L 178 2556 
Q 400 2666 628 2788 
L 628 3184 
Q 628 3488 711 3678 
Q 794 3869 1044 4128 
Q 1375 4475 1559 4581 
Q 1681 4653 1866 4653 
Q 1988 4653 2138 4613 
Q 2128 4453 2128 4356 
Q 2128 4259 2138 4091 
L 2059 4056 
Q 1875 4219 1638 4219 
Q 1375 4219 1264 4041 
Q 1153 3863 1153 3172 
L 1153 2756 
Q 1659 2759 1981 2788 
L 2003 2756 
L 1953 2456 
L 1569 2466 
Q 1428 2466 1153 2456 
z
" id="BookAntiqua-66" transform="scale(0.015625)"/>
        <path d="M 447 2153 
L 450 2363 
L 447 2578 
L 788 2772 
Q 1019 2903 1192 2953 
Q 1366 3003 1563 3003 
Q 1994 3003 2258 2809 
Q 2522 2616 2575 2316 
Q 2613 2091 2622 1200 
Q 2628 359 2659 271 
Q 2691 184 2816 184 
L 3059 184 
L 3059 -22 
Q 2703 0 2563 0 
Q 2388 0 2094 -22 
L 2097 256 
Q 2097 391 2094 528 
L 1447 34 
Q 1359 -31 1275 -57 
Q 1191 -84 1041 -84 
Q 638 -84 425 114 
Q 213 313 213 647 
Q 213 963 364 1198 
Q 516 1434 795 1546 
Q 1075 1659 2094 1841 
Q 2088 2238 1919 2434 
Q 1706 2681 1313 2681 
Q 1163 2681 1031 2643 
Q 900 2606 788 2531 
Q 697 2309 622 2106 
L 447 2153 
z
M 2094 1656 
Q 1225 1469 990 1305 
Q 756 1141 756 797 
Q 756 566 890 427 
Q 1025 288 1238 288 
Q 1472 288 1686 419 
Q 1900 550 2094 809 
L 2088 1503 
L 2094 1656 
z
" id="BookAntiqua-61" transform="scale(0.015625)"/>
        <path d="M 1191 1544 
L 1191 1147 
Q 1191 359 1242 259 
Q 1294 159 1556 159 
L 1747 159 
L 1747 -22 
L 1578 -16 
Q 1128 0 984 0 
L 153 -22 
L 153 159 
L 338 159 
Q 578 159 622 250 
Q 666 341 666 1141 
L 666 3003 
Q 666 4038 619 4163 
Q 591 4238 375 4238 
L 109 4238 
L 109 4422 
Q 372 4422 859 4553 
L 1175 4653 
Q 1225 4653 1225 4591 
L 1209 4278 
Q 1203 4159 1191 2972 
L 1191 1719 
L 1231 1697 
Q 1516 1909 1716 2078 
Q 1819 2166 2184 2516 
L 2634 2938 
L 3266 2938 
L 3266 2756 
L 3153 2756 
Q 3044 2756 2872 2653 
Q 2531 2450 1747 1800 
Q 2334 1191 2469 1069 
Q 3094 494 3222 391 
Q 3300 325 3356 301 
Q 3413 278 3516 266 
L 3516 128 
Q 3244 6 2919 -72 
Q 2734 78 2047 766 
Q 1544 1269 1231 1544 
L 1191 1544 
z
" id="BookAntiqua-6b" transform="scale(0.015625)"/>
        <path d="M 772 1491 
Q 788 875 1088 556 
Q 1388 238 1875 238 
Q 2094 238 2309 309 
Q 2525 381 2738 525 
L 2791 478 
L 2691 216 
Q 2431 66 2156 -9 
Q 1881 -84 1591 -84 
Q 956 -84 567 317 
Q 178 719 178 1406 
Q 178 1931 397 2316 
Q 541 2569 928 2784 
Q 1316 3000 1681 3000 
Q 2234 3000 2557 2675 
Q 2881 2350 2881 1766 
L 2875 1581 
Q 2669 1531 2481 1516 
Q 2147 1491 1553 1491 
L 772 1491 
z
M 781 1725 
Q 1266 1703 1850 1703 
Q 2084 1703 2303 1725 
L 2303 1900 
Q 2303 2175 2194 2422 
Q 2125 2575 1953 2676 
Q 1781 2778 1556 2778 
Q 1206 2778 997 2522 
Q 788 2266 781 1725 
z
" id="BookAntiqua-65" transform="scale(0.015625)"/>
       </defs>
       <use xlink:href="#BookAntiqua-66"/>
       <use x="33.300781" xlink:href="#BookAntiqua-61"/>
       <use x="83.300781" xlink:href="#BookAntiqua-6b"/>
       <use x="138.916016" xlink:href="#BookAntiqua-65"/>
      </g>
     </g>
    </g>
    <g id="xtick_2">
     <g id="text_2">
      <!-- real -->
      <g style="fill:#262626;" transform="translate(250.593867 167.30375)scale(0.165 -0.165)">
       <defs>
        <path d="M 1188 2294 
Q 1313 2413 1459 2606 
Q 1634 2834 1784 2918 
Q 1934 3003 2100 3003 
Q 2272 3003 2363 2963 
Q 2406 2944 2406 2903 
L 2403 2872 
Q 2356 2619 2350 2163 
L 2209 2163 
Q 2138 2322 2039 2387 
Q 1941 2453 1803 2453 
Q 1619 2453 1461 2328 
Q 1303 2203 1250 1978 
Q 1197 1753 1197 1094 
Q 1197 659 1231 363 
Q 1244 253 1294 225 
Q 1413 159 1644 159 
L 1831 159 
L 1831 -22 
Q 1353 0 925 0 
Q 509 0 103 -22 
L 103 159 
L 403 184 
Q 563 197 605 244 
Q 647 291 659 547 
Q 681 997 681 1616 
Q 681 2369 622 2500 
Q 581 2584 366 2584 
L 103 2584 
L 103 2766 
Q 406 2800 643 2854 
Q 881 2909 1066 2994 
Q 1109 3016 1138 3016 
Q 1172 3016 1184 2997 
Q 1197 2978 1197 2913 
L 1188 2294 
z
" id="BookAntiqua-72" transform="scale(0.015625)"/>
        <path d="M 1244 4619 
Q 1191 3703 1191 2963 
L 1191 1356 
Q 1191 400 1231 272 
Q 1253 206 1438 188 
L 1703 159 
L 1703 -22 
Q 1363 0 1053 0 
Q 709 0 153 -22 
L 153 159 
L 422 181 
Q 600 197 625 272 
Q 666 394 666 1381 
L 666 2978 
L 663 3578 
L 653 3988 
Q 653 4141 619 4175 
Q 569 4225 409 4225 
L 153 4225 
L 153 4413 
Q 803 4472 1191 4656 
L 1244 4619 
z
" id="BookAntiqua-6c" transform="scale(0.015625)"/>
       </defs>
       <use xlink:href="#BookAntiqua-72"/>
       <use x="39.501953" xlink:href="#BookAntiqua-65"/>
       <use x="87.402344" xlink:href="#BookAntiqua-61"/>
       <use x="137.402344" xlink:href="#BookAntiqua-6c"/>
      </g>
     </g>
    </g>
    <g id="text_3">
     <!-- Vorhersage -->
     <g style="fill:#262626;" transform="translate(148.876875 188.846719)scale(0.18 -0.18)">
      <defs>
       <path d="M 2163 -72 
Q 2022 347 1875 713 
L 756 3509 
Q 516 4116 475 4172 
Q 434 4228 206 4228 
L 78 4228 
L 78 4425 
Q 569 4403 913 4403 
Q 1275 4403 1781 4425 
L 1781 4200 
L 1472 4200 
Q 1313 4200 1266 4170 
Q 1219 4141 1219 4078 
Q 1219 4038 1234 3988 
L 1641 2916 
L 2484 763 
L 3306 2816 
Q 3722 3863 3722 4041 
Q 3722 4184 3550 4191 
L 3422 4200 
L 3153 4228 
L 3153 4425 
Q 3569 4403 3838 4403 
Q 4119 4403 4544 4425 
L 4544 4228 
L 4419 4228 
Q 4269 4228 4201 4158 
Q 4134 4088 3959 3659 
L 2906 1088 
Q 2609 363 2484 -72 
L 2163 -72 
z
" id="BookAntiqua-56" transform="scale(0.015625)"/>
       <path d="M 225 1478 
Q 225 1909 425 2257 
Q 625 2606 986 2803 
Q 1347 3000 1806 3000 
Q 2472 3000 2872 2606 
Q 3272 2213 3272 1556 
Q 3272 781 2750 325 
Q 2284 -84 1634 -84 
Q 1009 -84 617 336 
Q 225 756 225 1478 
z
M 813 1700 
Q 813 1056 1077 598 
Q 1341 141 1838 141 
Q 2216 141 2448 428 
Q 2681 716 2681 1300 
Q 2681 1772 2543 2117 
Q 2406 2463 2181 2620 
Q 1956 2778 1678 2778 
Q 1431 2778 1232 2653 
Q 1034 2528 941 2319 
Q 813 2034 813 1700 
z
" id="BookAntiqua-6f" transform="scale(0.015625)"/>
       <path d="M 1134 2406 
L 1544 2766 
Q 1688 2900 1827 2950 
Q 1966 3000 2163 3000 
Q 2509 3000 2764 2861 
Q 3019 2722 3117 2505 
Q 3216 2288 3216 1766 
L 3197 841 
Q 3197 528 3222 347 
Q 3231 272 3273 234 
Q 3316 197 3456 184 
L 3694 159 
L 3694 -22 
Q 3391 0 3103 0 
Q 2856 0 2613 -22 
Q 2669 763 2669 1522 
Q 2669 2031 2605 2212 
Q 2541 2394 2375 2500 
Q 2209 2606 1956 2606 
Q 1697 2606 1484 2482 
Q 1272 2359 1191 2197 
Q 1134 2081 1134 1647 
L 1134 1103 
Q 1134 359 1168 281 
Q 1203 203 1419 184 
L 1691 159 
L 1691 -22 
Q 1203 0 906 0 
Q 597 0 97 -22 
L 97 159 
L 294 184 
Q 478 206 525 236 
Q 572 266 588 372 
Q 609 541 609 1128 
L 609 3238 
Q 609 4072 566 4172 
Q 538 4241 313 4241 
L 97 4241 
L 97 4431 
Q 581 4481 872 4572 
L 1128 4659 
Q 1178 4659 1178 4594 
L 1169 4466 
L 1150 3903 
Q 1134 3478 1134 3244 
L 1134 2406 
z
" id="BookAntiqua-68" transform="scale(0.015625)"/>
       <path d="M 475 934 
L 475 731 
Q 475 488 519 428 
Q 600 328 836 234 
Q 1072 141 1322 141 
Q 1644 141 1847 314 
Q 2050 488 2050 728 
Q 2050 919 1931 1034 
Q 1813 1150 1478 1219 
Q 856 1344 656 1437 
Q 456 1531 356 1687 
Q 256 1844 256 2066 
Q 256 2481 557 2740 
Q 859 3000 1413 3000 
Q 1850 3000 2284 2825 
Q 2259 2613 2244 2113 
L 2059 2113 
Q 2053 2388 2000 2475 
Q 1928 2591 1737 2684 
Q 1547 2778 1331 2778 
Q 1047 2778 876 2633 
Q 706 2488 706 2269 
Q 706 2059 841 1953 
Q 975 1844 1584 1722 
Q 2034 1631 2178 1553 
Q 2322 1475 2409 1315 
Q 2497 1156 2497 950 
Q 2497 528 2136 222 
Q 1775 -84 1172 -84 
Q 788 -84 309 38 
Q 225 59 225 103 
L 234 147 
Q 247 194 256 313 
Q 284 616 284 784 
L 281 934 
L 475 934 
z
" id="BookAntiqua-73" transform="scale(0.015625)"/>
       <path d="M 2797 2419 
Q 2869 2219 2869 2091 
Q 2869 1813 2700 1555 
Q 2531 1297 2218 1139 
Q 1906 981 1544 981 
L 1397 984 
Q 1191 831 1136 756 
Q 1081 681 1081 609 
Q 1081 491 1203 422 
Q 1325 353 1700 353 
Q 1844 353 2113 363 
Q 2497 378 2669 378 
Q 2916 378 3047 298 
Q 3178 219 3272 20 
Q 3366 -178 3366 -428 
Q 3366 -778 3153 -1098 
Q 2941 -1419 2534 -1612 
Q 2128 -1806 1600 -1806 
Q 956 -1806 609 -1526 
Q 263 -1247 263 -838 
Q 263 -584 444 -325 
Q 769 -172 991 -16 
Q 734 69 661 139 
Q 588 209 588 319 
Q 588 450 659 578 
Q 700 656 866 769 
L 1169 984 
Q 794 1078 628 1250 
Q 409 1481 409 1841 
Q 409 2156 571 2415 
Q 734 2675 1050 2825 
Q 1453 3016 1828 3016 
Q 2066 3016 2245 2953 
Q 2425 2891 2613 2741 
L 2875 2741 
Q 3281 2741 3506 2766 
L 3541 2700 
Q 3447 2566 3375 2419 
L 2797 2419 
z
M 2322 1925 
Q 2322 2316 2122 2553 
Q 1922 2791 1619 2791 
Q 1319 2791 1136 2597 
Q 953 2403 953 2059 
Q 953 1644 1151 1408 
Q 1350 1172 1650 1172 
Q 1950 1172 2136 1370 
Q 2322 1569 2322 1925 
z
M 1472 -66 
Q 1250 -66 1169 -116 
Q 906 -284 850 -388 
Q 756 -550 756 -797 
Q 756 -1138 1009 -1359 
Q 1263 -1581 1713 -1581 
Q 2059 -1581 2321 -1453 
Q 2584 -1325 2729 -1101 
Q 2875 -878 2875 -641 
Q 2875 -438 2773 -284 
Q 2672 -131 2531 -88 
Q 2459 -66 2203 -66 
L 1472 -66 
z
" id="BookAntiqua-67" transform="scale(0.015625)"/>
      </defs>
      <use xlink:href="#BookAntiqua-56"/>
      <use x="72.216797" xlink:href="#BookAntiqua-6f"/>
      <use x="126.806641" xlink:href="#BookAntiqua-72"/>
      <use x="166.308594" xlink:href="#BookAntiqua-68"/>
      <use x="224.511719" xlink:href="#BookAntiqua-65"/>
      <use x="272.412109" xlink:href="#BookAntiqua-72"/>
      <use x="311.914062" xlink:href="#BookAntiqua-73"/>
      <use x="354.296875" xlink:href="#BookAntiqua-61"/>
      <use x="404.296875" xlink:href="#BookAntiqua-67"/>
      <use x="459.912109" xlink:href="#BookAntiqua-65"/>
     </g>
    </g>
   </g>
   <g id="matplotlib.axis_2">
    <g id="ytick_1">
     <g id="text_4">
      <!-- fake -->
      <g style="fill:#262626;" transform="translate(41.141875 66.672188)rotate(-90)scale(0.165 -0.165)">
       <use xlink:href="#BookAntiqua-66"/>
       <use x="33.300781" xlink:href="#BookAntiqua-61"/>
       <use x="83.300781" xlink:href="#BookAntiqua-6b"/>
       <use x="138.916016" xlink:href="#BookAntiqua-65"/>
      </g>
     </g>
    </g>
    <g id="ytick_2">
     <g id="text_5">
      <!-- real -->
      <g style="fill:#262626;" transform="translate(41.141875 132.623203)rotate(-90)scale(0.165 -0.165)">
       <use xlink:href="#BookAntiqua-72"/>
       <use x="39.501953" xlink:href="#BookAntiqua-65"/>
       <use x="87.402344" xlink:href="#BookAntiqua-61"/>
       <use x="137.402344" xlink:href="#BookAntiqua-6c"/>
      </g>
     </g>
    </g>
    <g id="text_6">
     <!-- Tatsächlich -->
     <g style="fill:#262626;" transform="translate(20.295 121.473281)rotate(-90)scale(0.18 -0.18)">
      <defs>
       <path d="M 2294 4141 
Q 2259 3672 2259 3153 
L 2259 1372 
Q 2259 378 2309 276 
Q 2359 175 2666 175 
L 2900 175 
L 2900 -22 
Q 2347 0 1963 0 
Q 1575 0 1031 -22 
L 1031 175 
L 1294 175 
Q 1500 175 1562 229 
Q 1625 284 1641 444 
Q 1672 809 1672 1388 
L 1672 3172 
Q 1672 3700 1650 4141 
L 1331 4141 
Q 559 4141 481 4105 
Q 403 4069 378 3825 
L 334 3406 
L 138 3406 
L 144 3778 
Q 144 4003 106 4425 
Q 1794 4403 2091 4403 
L 3819 4425 
Q 3759 3897 3750 3406 
L 3556 3406 
L 3525 3816 
Q 3506 4028 3472 4067 
Q 3438 4106 3319 4116 
Q 2975 4141 2538 4141 
L 2294 4141 
z
" id="BookAntiqua-54" transform="scale(0.015625)"/>
       <path d="M 1159 2434 
L 1159 1209 
Q 1159 731 1190 597 
Q 1222 463 1317 388 
Q 1413 313 1559 313 
Q 1650 313 1736 348 
Q 1822 384 1906 456 
L 1997 347 
L 1694 -13 
Q 1594 -47 1500 -65 
Q 1406 -84 1319 -84 
Q 1088 -84 928 -1 
Q 769 81 697 214 
Q 625 347 625 616 
L 634 1219 
L 634 2406 
Q 394 2406 138 2384 
L 138 2519 
Q 406 2622 634 2734 
Q 631 3181 609 3703 
Q 972 3856 1131 3950 
L 1213 3888 
Q 1188 3644 1159 2734 
Q 1541 2734 1781 2744 
L 2031 2756 
L 1997 2434 
L 1869 2438 
L 1269 2434 
L 1159 2434 
z
" id="BookAntiqua-74" transform="scale(0.015625)"/>
       <path d="M 447 2153 
L 450 2363 
L 447 2578 
L 788 2772 
Q 1019 2903 1192 2953 
Q 1366 3003 1563 3003 
Q 1994 3003 2258 2809 
Q 2522 2616 2575 2316 
Q 2613 2091 2622 1200 
Q 2628 359 2659 271 
Q 2691 184 2816 184 
L 3059 184 
L 3059 -22 
Q 2703 0 2563 0 
Q 2388 0 2094 -22 
L 2097 256 
Q 2097 391 2094 528 
L 1447 34 
Q 1359 -31 1275 -57 
Q 1191 -84 1041 -84 
Q 638 -84 425 114 
Q 213 313 213 647 
Q 213 963 364 1198 
Q 516 1434 795 1546 
Q 1075 1659 2094 1841 
Q 2088 2238 1919 2434 
Q 1706 2681 1313 2681 
Q 1163 2681 1031 2643 
Q 900 2606 788 2531 
Q 697 2309 622 2106 
L 447 2153 
z
M 2094 1656 
Q 1225 1469 990 1305 
Q 756 1141 756 797 
Q 756 566 890 427 
Q 1025 288 1238 288 
Q 1472 288 1686 419 
Q 1900 550 2094 809 
L 2088 1503 
L 2094 1656 
z
M 924 3944 
Q 1064 3944 1164 3844 
Q 1264 3744 1264 3603 
Q 1264 3459 1164 3359 
Q 1064 3259 924 3259 
Q 780 3259 680 3359 
Q 580 3459 580 3603 
Q 580 3744 680 3844 
Q 780 3944 924 3944 
z
M 2280 3944 
Q 2420 3944 2520 3844 
Q 2620 3744 2620 3603 
Q 2620 3459 2520 3359 
Q 2420 3259 2280 3259 
Q 2139 3259 2037 3359 
Q 1936 3459 1936 3603 
Q 1936 3744 2036 3844 
Q 2136 3944 2280 3944 
z
" id="BookAntiqua-e4" transform="scale(0.015625)"/>
       <path d="M 2531 422 
L 2616 347 
L 2488 147 
Q 2275 31 2050 -26 
Q 1825 -84 1591 -84 
Q 1131 -84 811 91 
Q 491 266 316 597 
Q 141 928 141 1384 
Q 141 1788 275 2086 
Q 409 2384 651 2553 
Q 894 2722 1256 2884 
Q 1513 3000 1828 3000 
Q 2069 3000 2242 2961 
Q 2416 2922 2616 2822 
Q 2538 2409 2531 1997 
L 2334 1997 
L 2334 2153 
Q 2334 2353 2276 2436 
Q 2219 2519 2012 2600 
Q 1806 2681 1563 2681 
Q 1141 2681 912 2423 
Q 684 2166 684 1653 
Q 684 994 1022 597 
Q 1325 238 1803 238 
Q 1991 238 2172 284 
Q 2353 331 2531 422 
z
" id="BookAntiqua-63" transform="scale(0.015625)"/>
       <path d="M 934 4397 
Q 1078 4397 1181 4292 
Q 1284 4188 1284 4041 
Q 1284 3894 1181 3791 
Q 1078 3688 934 3688 
Q 788 3688 684 3791 
Q 581 3894 581 4041 
Q 581 4188 684 4292 
Q 788 4397 934 4397 
z
M 1184 3013 
L 1259 2966 
Q 1238 2731 1231 2450 
Q 1209 1538 1209 1103 
Q 1209 697 1238 409 
Q 1250 297 1297 253 
Q 1344 209 1522 188 
L 1734 159 
L 1734 -22 
Q 1278 0 903 0 
Q 534 0 159 -22 
L 159 159 
L 428 188 
Q 584 200 620 245 
Q 656 291 666 547 
Q 681 944 681 1641 
Q 681 2125 666 2388 
Q 659 2484 611 2525 
Q 563 2566 394 2566 
L 159 2566 
L 159 2750 
Q 541 2806 720 2853 
Q 900 2900 1184 3013 
z
" id="BookAntiqua-69" transform="scale(0.015625)"/>
      </defs>
      <use xlink:href="#BookAntiqua-54"/>
      <use x="61.279297" xlink:href="#BookAntiqua-61"/>
      <use x="111.279297" xlink:href="#BookAntiqua-74"/>
      <use x="143.896484" xlink:href="#BookAntiqua-73"/>
      <use x="186.279297" xlink:href="#BookAntiqua-e4"/>
      <use x="236.279297" xlink:href="#BookAntiqua-63"/>
      <use x="280.664062" xlink:href="#BookAntiqua-68"/>
      <use x="338.867188" xlink:href="#BookAntiqua-6c"/>
      <use x="367.96875" xlink:href="#BookAntiqua-69"/>
      <use x="397.070312" xlink:href="#BookAntiqua-63"/>
      <use x="441.455078" xlink:href="#BookAntiqua-68"/>
     </g>
    </g>
   </g>
   <g id="QuadMesh_1">
    <path clip-path="url(#pebc575f93e)" d="M 55.081406 7.2 
L 194.581406 7.2 
L 194.581406 76.5 
L 55.081406 76.5 
L 55.081406 7.2 
" style="fill:#d7f3d9;"/>
    <path clip-path="url(#pebc575f93e)" d="M 194.581406 7.2 
L 334.081406 7.2 
L 334.081406 76.5 
L 194.581406 76.5 
L 194.581406 7.2 
" style="fill:#ffe5e4;"/>
    <path clip-path="url(#pebc575f93e)" d="M 55.081406 76.5 
L 194.581406 76.5 
L 194.581406 145.8 
L 55.081406 145.8 
L 55.081406 76.5 
" style="fill:#ffe5e4;"/>
    <path clip-path="url(#pebc575f93e)" d="M 194.581406 76.5 
L 334.081406 76.5 
L 334.081406 145.8 
L 194.581406 145.8 
L 194.581406 76.5 
" style="fill:#d7f3d9;"/>
   </g>
   <g id="text_7">
    <!-- 644 -->
    <g style="fill:#262626;" transform="translate(111.331406 45.975938)scale(0.18 -0.18)">
     <defs>
      <path d="M 2475 4503 
L 2703 4400 
L 2703 4347 
Q 2147 4200 1744 3890 
Q 1341 3581 1116 3168 
Q 891 2756 838 2184 
L 1191 2444 
Q 1366 2584 1509 2632 
Q 1653 2681 1863 2681 
Q 2394 2681 2692 2365 
Q 2991 2050 2991 1475 
Q 2991 825 2566 370 
Q 2141 -84 1544 -84 
Q 956 -84 584 362 
Q 213 809 213 1644 
Q 213 2334 473 2896 
Q 734 3459 1262 3887 
Q 1791 4316 2475 4503 
z
M 1619 2309 
Q 1378 2309 1170 2190 
Q 963 2072 869 1894 
Q 800 1763 800 1397 
Q 800 775 1059 431 
Q 1278 141 1638 141 
Q 1988 141 2200 409 
Q 2447 722 2447 1269 
Q 2447 1778 2219 2043 
Q 1991 2309 1619 2309 
z
" id="BookAntiqua-36" transform="scale(0.015625)"/>
      <path d="M 991 -22 
L 991 163 
L 1328 181 
Q 1606 197 1662 234 
Q 1719 272 1738 372 
Q 1775 538 1775 991 
L 1775 1153 
Q 566 1153 66 1122 
L 9 1309 
Q 516 2197 831 2715 
Q 1147 3234 1825 4281 
Q 1991 4328 2256 4453 
L 2344 4416 
Q 2322 4050 2319 3150 
L 2319 1547 
Q 2725 1547 3019 1584 
Q 3000 1434 3000 1378 
Q 3000 1338 3019 1122 
Q 2684 1153 2319 1153 
Q 2319 391 2369 295 
Q 2419 200 2697 181 
L 3019 163 
L 3019 -22 
Q 2428 0 2006 0 
Q 1841 0 991 -22 
z
M 1775 3778 
Q 1091 2784 425 1547 
Q 784 1534 1069 1534 
Q 1334 1534 1775 1547 
L 1775 3778 
z
" id="BookAntiqua-34" transform="scale(0.015625)"/>
     </defs>
     <use xlink:href="#BookAntiqua-36"/>
     <use x="50" xlink:href="#BookAntiqua-34"/>
     <use x="100" xlink:href="#BookAntiqua-34"/>
    </g>
   </g>
   <g id="text_8">
    <!-- 61 -->
    <g style="fill:#262626;" transform="translate(255.331406 45.975938)scale(0.18 -0.18)">
     <defs>
      <path d="M 531 -22 
L 531 181 
L 775 191 
Q 1197 203 1280 309 
Q 1363 416 1359 1169 
L 1381 2903 
Q 1381 3775 1363 3863 
Q 1353 3916 1306 3916 
Q 1275 3916 1163 3866 
Q 631 3631 434 3519 
Q 297 3438 275 3438 
Q 234 3438 228 3491 
L 206 3794 
Q 1188 4088 1881 4453 
L 1972 4413 
L 1959 4059 
L 1928 2256 
L 1906 1025 
Q 1906 581 1943 437 
Q 1981 294 2064 245 
Q 2147 197 2463 191 
L 2747 181 
L 2747 -22 
Q 1963 0 1634 0 
Q 1256 0 531 -22 
z
" id="BookAntiqua-31" transform="scale(0.015625)"/>
     </defs>
     <use xlink:href="#BookAntiqua-36"/>
     <use x="50" xlink:href="#BookAntiqua-31"/>
    </g>
   </g>
   <g id="text_9">
    <!-- 7 -->
    <g style="fill:#262626;" transform="translate(120.331406 115.275937)scale(0.18 -0.18)">
     <defs>
      <path d="M 484 3059 
L 288 3059 
Q 309 3472 309 3816 
Q 309 4122 275 4388 
L 331 4444 
Q 794 4409 1491 4409 
Q 2616 4409 3188 4453 
L 3188 4266 
Q 1613 1444 1063 -13 
Q 856 0 766 0 
Q 631 0 459 -22 
L 406 59 
Q 838 744 1866 2481 
Q 2347 3291 2656 3878 
L 2622 3906 
L 2425 3909 
Q 2088 3909 1113 3884 
Q 709 3872 654 3840 
Q 600 3809 572 3726 
Q 544 3644 503 3238 
L 484 3059 
z
" id="BookAntiqua-37" transform="scale(0.015625)"/>
     </defs>
     <use xlink:href="#BookAntiqua-37"/>
    </g>
   </g>
   <g id="text_10">
    <!-- 698 -->
    <g style="fill:#262626;" transform="translate(250.831406 115.275937)scale(0.18 -0.18)">
     <defs>
      <path d="M 650 -100 
L 438 9 
L 438 72 
Q 1041 206 1444 492 
Q 1847 778 2086 1193 
Q 2325 1609 2397 2225 
L 2075 1969 
Q 1875 1797 1719 1737 
Q 1563 1678 1353 1678 
Q 831 1678 507 2020 
Q 184 2363 184 2969 
Q 184 3647 587 4067 
Q 991 4488 1619 4488 
Q 2266 4488 2639 4042 
Q 3013 3597 3013 2728 
Q 3013 2113 2823 1631 
Q 2634 1150 2246 753 
Q 1859 356 1375 122 
Q 1069 -25 650 -100 
z
M 728 3178 
Q 728 2634 968 2340 
Q 1209 2047 1588 2047 
Q 1969 2047 2197 2300 
Q 2425 2553 2425 3066 
Q 2425 3625 2176 3944 
Q 1928 4263 1566 4263 
Q 1338 4263 1148 4139 
Q 959 4016 843 3761 
Q 728 3506 728 3178 
z
" id="BookAntiqua-39" transform="scale(0.015625)"/>
      <path d="M 1025 2263 
L 1025 2288 
Q 659 2500 509 2697 
Q 313 2959 313 3313 
Q 313 3825 672 4156 
Q 1031 4488 1625 4488 
Q 2163 4488 2470 4231 
Q 2778 3975 2778 3584 
Q 2778 3288 2614 3039 
Q 2450 2791 2000 2516 
L 2000 2488 
Q 2578 2216 2764 1970 
Q 2950 1725 2950 1356 
Q 2950 769 2506 342 
Q 2063 -84 1425 -84 
Q 863 -84 511 244 
Q 159 572 159 1066 
Q 159 1831 1025 2263 
z
M 1763 2594 
Q 2063 2769 2195 2984 
Q 2328 3200 2328 3481 
Q 2328 3847 2123 4055 
Q 1919 4263 1572 4263 
Q 1225 4263 1015 4070 
Q 806 3878 806 3569 
Q 806 3272 982 3069 
Q 1159 2866 1763 2594 
z
M 1278 2172 
Q 941 1972 803 1772 
Q 606 1484 606 1100 
Q 606 663 861 402 
Q 1116 141 1519 141 
Q 1938 141 2197 397 
Q 2456 653 2456 1063 
Q 2456 1438 2223 1647 
Q 1991 1856 1278 2172 
z
" id="BookAntiqua-38" transform="scale(0.015625)"/>
     </defs>
     <use xlink:href="#BookAntiqua-36"/>
     <use x="50" xlink:href="#BookAntiqua-39"/>
     <use x="100" xlink:href="#BookAntiqua-38"/>
    </g>
   </g>
  </g>
 </g>
 <defs>
  <clipPath id="pebc575f93e">
   <rect height="138.6" width="279" x="55.081406" y="7.2"/>
  </clipPath>
 </defs>
</svg>
